<svg width="179" height="109" viewBox="0 0 179 109" fill="none" xmlns="http://www.w3.org/2000/svg">
<path fill-rule="evenodd" clip-rule="evenodd" d="M109.713 58.9967C109.186 58.672 100.053 45.2719 89.414 29.2188C78.7767 13.1657 69.6477 0.0182584 69.126 0.000219619C67.3942 -0.0608346 4.92334e-05 99.9974 4.92334e-05 102.628C4.92334e-05 103.55 14.3839 104.037 41.628 104.037C69.4798 104.037 83.2559 103.559 83.2559 102.596C83.2559 101.804 79.4927 95.5599 74.8942 88.7204L66.5325 76.2847H58.2361H49.9383L59.1658 62.4268L68.3919 48.5675L73.4025 55.2821C76.1569 58.9745 85.5385 72.7242 94.2484 85.8356C102.96 98.9484 110.53 109.187 111.072 108.591C112.857 106.626 179 6.9493 179 6.22498C179 5.83645 160.268 5.5173 137.372 5.5173C114.477 5.5173 95.7442 5.83645 95.7442 6.22498C95.7442 6.61489 99.5629 12.5469 104.229 19.4071L112.716 31.8816H120.187C124.297 31.8816 127.659 32.3187 127.659 32.853C127.659 34.7887 110.646 59.5739 109.713 58.9967Z" fill="white"/>
</svg>
