<svg width="179" height="110" viewBox="0 0 179 110" fill="none" xmlns="http://www.w3.org/2000/svg">
<path fill-rule="evenodd" clip-rule="evenodd" d="M109.713 59.8267C109.186 59.502 100.053 46.102 89.414 30.0488C78.7767 13.9957 69.6477 0.848267 69.1259 0.830228C67.3942 0.769174 0 100.827 0 103.458C0 104.38 14.3838 104.867 41.6279 104.867C69.4798 104.867 83.2558 104.389 83.2558 103.426C83.2558 102.634 79.4927 96.3899 74.8942 89.5504L66.5325 77.1148H58.2361H49.9382L59.1658 63.2568L68.3919 49.3975L73.4025 56.1121C76.1569 59.8045 85.5384 73.5542 94.2484 86.6656C102.96 99.7784 110.53 110.017 111.072 109.421C112.857 107.456 179 7.77931 179 7.05499C179 6.66646 160.267 6.34731 137.372 6.34731C114.477 6.34731 95.7442 6.66646 95.7442 7.05499C95.7442 7.4449 99.5629 13.3769 104.229 20.2372L112.716 32.7116H120.187C124.297 32.7116 127.659 33.1487 127.659 33.683C127.659 35.6187 110.646 60.4039 109.713 59.8267Z" fill="black"/>
</svg>
